<?xml version="1.0" encoding="UTF-8"?>
<svg width="192.32mm" height="84.868mm" version="1.1" viewBox="0 0 192.32 84.868" xmlns="http://www.w3.org/2000/svg">
 <g transform="translate(172.68 -113.2)">
  <path d="m268.58 486.2 152.88-35.81"/>
  <path d="m1022 586.74-243.79 114.32"/>
 </g>
 <path d="m908.6 299.11c-3.6729 14.691 0 0 0 0z"/>
 <path d="m911.35 293.6c0.91821 3.6729-0.91822 11.937 2.7546 11.019 3.6729-0.91821-2.7546-11.019-2.7546-11.019z"/>
 <g fill="none" stroke="#000" stroke-linecap="round" stroke-linejoin="round" stroke-width="10.583">
  <path d="m17.655 77.57c-10.659-8.6728-10.765-22.444-11.338-35.045-0.42246-9.2942-3.6613-25.199 4.1229-32.983 5.9836-5.9836 17.764 19.388 18.553 22.676 2.1977 9.157 2.0615 11.714 2.0615 18.553v-1.0307-6.1844c0-2.7486-0.36327-5.5213 0-8.2458 1.4431-10.823 2.7405-32.26 13.399-29.891 1.677 0.37266 2.1918 2.6599 3.0922 4.1229 9.892 16.074 12.95 33.035 14.43 51.536 0.30263 3.7828 0.56003 7.5724 1.0307 11.338 0.08132 0.65053 1.0307 10.181 1.0307 6.1844"/>
  <path d="m108.36 54.894c0.38979-3.7078-1.1685-10.376-5.1536-12.369-1.2292-0.61461-2.7486 0-4.1229 0-1.0307 0-2.2346-0.57174-3.0922 0-3.6429 2.4286-8.7107 12.738-11.338 16.492-3.9168 5.5954-3.0922 2.1066-3.0922 8.2458 0 0.34357-0.24295 0.78778 0 1.0307 5.9636 5.9636 18.365 3.2802 23.707-2.0614 0.54325-0.54324 0.56978-1.4468 1.0307-2.0615 0.58307-0.77742 1.8506-1.1128 2.0615-2.0615 0.52172-2.3478-2.0011-8.5492 0-7.2151 1.9804 1.3202 8.4315 20.615 12.369 20.615"/>
  <path d="m127.94 10.573c1.381 9.7413-0.35742 20.174 1.0307 29.891 0.93838 6.5686 4.0864 14.321 6.1844 20.615 0.98875 2.9662 6.1844 10.957 6.1844 13.399"/>
  <path d="m115.06 39.433c1.3743 0 4.1229 1.3743 4.1229 0s-5.4443-0.37755-4.1229 0c3.6935 1.0553 7.6114 1.1298 11.338 2.0615 1.795 0.44874 3.3984 1.4764 5.1536 2.0615 4.1047 1.3682 8.1348 1.0307 12.369 1.0307"/>
  <path d="m158.87 12.634c0 15.728-0.0528-14.587 1.0307 30.922 0.26926 11.309-3.2621 22.076 8.2458 27.83 1.471 0.73548 1.2491 2.0614 3.0922 2.0614"/>
  <path d="m147.53 34.28c1.3743 0 4.1229 1.3743 4.1229 0 0-1.3743-5.4972 0-4.1229 0 2.6822 0 22.137 1.3002 24.737 0 0.3073-0.15365 0-0.68715 0-1.0307"/>
  <path d="m184.82 72.001c-0.18221 0.30368-0.8503 0.72883-0.54662 0.91104s0.54662-1.2652 0.54662-0.91104c0 0.57619-0.43362 1.0749-0.54662 1.6399-0.0748 0.37415 0.72896 0.36441 0.91104 0.36441 0.25464 0 0.88281 0.10522 1.0932 0 0.0543-0.0272-0.0429-0.13926 0-0.18221 0.0429-0.0429 0.12789 0.0272 0.18221 0 0.24404-0.12202 0.25247-0.43468 0.36442-0.54662 0.0429-0.0429 0.13926 0.0429 0.1822 0 0.0859-0.0859 0-0.24295 0-0.36442 0-0.80551-0.14493-1.0932-0.91104-1.0932"/>
 </g>
</svg>
